<mxfile host="app.diagrams.net" modified="2024-04-20T15:20:55.989Z" agent="Mozilla/5.0 (Macintosh; Intel Mac OS X 10_15_7) AppleWebKit/537.36 (KHTML, like Gecko) Chrome/124.0.0.0 Safari/537.36" etag="i6SRnE3yf0atNnialWVF" version="24.2.7" type="device">
  <diagram name="PÃ¡gina-1" id="8zOgTPy7WjqP1u_Dxr-D">
    <mxGraphModel dx="1762" dy="1175" grid="1" gridSize="10" guides="1" tooltips="1" connect="1" arrows="1" fold="1" page="1" pageScale="1" pageWidth="1169" pageHeight="1654" background="#FFFFFF" math="0" shadow="0">
      <root>
        <mxCell id="0" />
        <mxCell id="1" parent="0" />
        <mxCell id="gKDUvc9GWXEgYrPeWesR-3" style="edgeStyle=orthogonalEdgeStyle;rounded=0;orthogonalLoop=1;jettySize=auto;html=1;exitX=0.5;exitY=1;exitDx=0;exitDy=0;entryX=0.5;entryY=0;entryDx=0;entryDy=0;strokeColor=#FFFFFF;" parent="1" source="gKDUvc9GWXEgYrPeWesR-1" target="q9ohaEyn7uQv9T4nXkOE-1" edge="1">
          <mxGeometry relative="1" as="geometry">
            <mxPoint x="430" y="170" as="targetPoint" />
          </mxGeometry>
        </mxCell>
        <mxCell id="gKDUvc9GWXEgYrPeWesR-1" value="Start" style="ellipse;whiteSpace=wrap;html=1;" parent="1" vertex="1">
          <mxGeometry x="525" y="30" width="120" height="80" as="geometry" />
        </mxCell>
        <mxCell id="q9ohaEyn7uQv9T4nXkOE-4" style="edgeStyle=orthogonalEdgeStyle;rounded=0;orthogonalLoop=1;jettySize=auto;html=1;exitX=0.5;exitY=1;exitDx=0;exitDy=0;entryX=0.5;entryY=0;entryDx=0;entryDy=0;strokeColor=#FFFFFF;" edge="1" parent="1" source="q9ohaEyn7uQv9T4nXkOE-1" target="q9ohaEyn7uQv9T4nXkOE-3">
          <mxGeometry relative="1" as="geometry" />
        </mxCell>
        <mxCell id="q9ohaEyn7uQv9T4nXkOE-1" value="&lt;div style=&quot;text-align: justify;&quot;&gt;&lt;span style=&quot;background-color: initial;&quot;&gt;int numVertices = graph.adjacencyList.size();&lt;/span&gt;&lt;/div&gt;&lt;div style=&quot;text-align: justify;&quot;&gt;boolean[] visited = new boolean[numVertives];&lt;/div&gt;&lt;div style=&quot;text-align: justify;&quot;&gt;PriorityQueue&amp;lt;Vertex&amp;gt; priorityQueue = new&amp;nbsp;&lt;span style=&quot;background-color: initial;&quot;&gt;PriorityQueue&amp;lt;&amp;gt;(numVertives,Comparator.comparingInt(v -&amp;gt; v.distance));&lt;/span&gt;&lt;/div&gt;&lt;div style=&quot;text-align: justify;&quot;&gt;&lt;span style=&quot;background-color: initial;&quot;&gt;Vertex[] vertices = new Vertex[numVertives];&lt;/span&gt;&lt;/div&gt;" style="rounded=1;whiteSpace=wrap;html=1;" vertex="1" parent="1">
          <mxGeometry x="407" y="150" width="355" height="90" as="geometry" />
        </mxCell>
        <mxCell id="q9ohaEyn7uQv9T4nXkOE-6" style="edgeStyle=orthogonalEdgeStyle;rounded=0;orthogonalLoop=1;jettySize=auto;html=1;" edge="1" parent="1" source="q9ohaEyn7uQv9T4nXkOE-3">
          <mxGeometry relative="1" as="geometry">
            <mxPoint x="433" y="340" as="targetPoint" />
          </mxGeometry>
        </mxCell>
        <mxCell id="q9ohaEyn7uQv9T4nXkOE-8" style="edgeStyle=orthogonalEdgeStyle;rounded=0;orthogonalLoop=1;jettySize=auto;html=1;entryX=0.5;entryY=0;entryDx=0;entryDy=0;strokeColor=#FFFFFF;" edge="1" parent="1" source="q9ohaEyn7uQv9T4nXkOE-3" target="q9ohaEyn7uQv9T4nXkOE-5">
          <mxGeometry relative="1" as="geometry" />
        </mxCell>
        <mxCell id="q9ohaEyn7uQv9T4nXkOE-3" value="int i = 0;" style="rounded=1;whiteSpace=wrap;html=1;" vertex="1" parent="1">
          <mxGeometry x="525" y="270" width="120" height="20" as="geometry" />
        </mxCell>
        <mxCell id="q9ohaEyn7uQv9T4nXkOE-12" value="" style="edgeStyle=orthogonalEdgeStyle;rounded=0;orthogonalLoop=1;jettySize=auto;html=1;" edge="1" parent="1" source="q9ohaEyn7uQv9T4nXkOE-13">
          <mxGeometry relative="1" as="geometry">
            <mxPoint x="270" y="390" as="targetPoint" />
          </mxGeometry>
        </mxCell>
        <mxCell id="q9ohaEyn7uQv9T4nXkOE-14" style="edgeStyle=orthogonalEdgeStyle;rounded=0;orthogonalLoop=1;jettySize=auto;html=1;exitX=0;exitY=0.5;exitDx=0;exitDy=0;entryX=0.5;entryY=0;entryDx=0;entryDy=0;strokeColor=#FFFFFF;" edge="1" parent="1" source="q9ohaEyn7uQv9T4nXkOE-5" target="q9ohaEyn7uQv9T4nXkOE-13">
          <mxGeometry relative="1" as="geometry" />
        </mxCell>
        <mxCell id="q9ohaEyn7uQv9T4nXkOE-15" value="true" style="edgeLabel;html=1;align=center;verticalAlign=middle;resizable=0;points=[];" vertex="1" connectable="0" parent="q9ohaEyn7uQv9T4nXkOE-14">
          <mxGeometry x="0.1225" y="1" relative="1" as="geometry">
            <mxPoint as="offset" />
          </mxGeometry>
        </mxCell>
        <mxCell id="q9ohaEyn7uQv9T4nXkOE-32" style="edgeStyle=orthogonalEdgeStyle;rounded=0;orthogonalLoop=1;jettySize=auto;html=1;exitX=1;exitY=0.5;exitDx=0;exitDy=0;strokeColor=#FFFFFF;entryX=0.5;entryY=0;entryDx=0;entryDy=0;" edge="1" parent="1" source="q9ohaEyn7uQv9T4nXkOE-5" target="q9ohaEyn7uQv9T4nXkOE-31">
          <mxGeometry relative="1" as="geometry">
            <mxPoint x="610" y="420" as="targetPoint" />
            <Array as="points">
              <mxPoint x="900" y="350" />
            </Array>
          </mxGeometry>
        </mxCell>
        <mxCell id="q9ohaEyn7uQv9T4nXkOE-33" value="false" style="edgeLabel;html=1;align=center;verticalAlign=middle;resizable=0;points=[];" vertex="1" connectable="0" parent="q9ohaEyn7uQv9T4nXkOE-32">
          <mxGeometry x="-0.8733" y="3" relative="1" as="geometry">
            <mxPoint x="11" y="3" as="offset" />
          </mxGeometry>
        </mxCell>
        <mxCell id="q9ohaEyn7uQv9T4nXkOE-5" value="i &amp;lt; numVertices" style="rhombus;whiteSpace=wrap;html=1;" vertex="1" parent="1">
          <mxGeometry x="515" y="310" width="140" height="80" as="geometry" />
        </mxCell>
        <mxCell id="q9ohaEyn7uQv9T4nXkOE-18" value="" style="edgeStyle=orthogonalEdgeStyle;rounded=0;orthogonalLoop=1;jettySize=auto;html=1;" edge="1" parent="1" source="q9ohaEyn7uQv9T4nXkOE-13" target="q9ohaEyn7uQv9T4nXkOE-17">
          <mxGeometry relative="1" as="geometry" />
        </mxCell>
        <mxCell id="q9ohaEyn7uQv9T4nXkOE-19" style="edgeStyle=orthogonalEdgeStyle;rounded=0;orthogonalLoop=1;jettySize=auto;html=1;exitX=0.5;exitY=1;exitDx=0;exitDy=0;entryX=0.5;entryY=0;entryDx=0;entryDy=0;strokeColor=#FFFFFF;" edge="1" parent="1" source="q9ohaEyn7uQv9T4nXkOE-13" target="q9ohaEyn7uQv9T4nXkOE-17">
          <mxGeometry relative="1" as="geometry" />
        </mxCell>
        <mxCell id="q9ohaEyn7uQv9T4nXkOE-20" style="edgeStyle=orthogonalEdgeStyle;rounded=0;orthogonalLoop=1;jettySize=auto;html=1;exitX=0;exitY=0.5;exitDx=0;exitDy=0;strokeColor=#FFFFFF;entryX=0.5;entryY=0;entryDx=0;entryDy=0;" edge="1" parent="1" source="q9ohaEyn7uQv9T4nXkOE-17" target="q9ohaEyn7uQv9T4nXkOE-22">
          <mxGeometry relative="1" as="geometry">
            <mxPoint x="80" y="620" as="targetPoint" />
            <mxPoint x="280" y="599.76" as="sourcePoint" />
            <Array as="points">
              <mxPoint x="95" y="600" />
            </Array>
          </mxGeometry>
        </mxCell>
        <mxCell id="q9ohaEyn7uQv9T4nXkOE-21" value="true" style="edgeLabel;html=1;align=center;verticalAlign=middle;resizable=0;points=[];" vertex="1" connectable="0" parent="q9ohaEyn7uQv9T4nXkOE-20">
          <mxGeometry x="-0.7138" relative="1" as="geometry">
            <mxPoint x="-78" as="offset" />
          </mxGeometry>
        </mxCell>
        <mxCell id="q9ohaEyn7uQv9T4nXkOE-26" style="edgeStyle=orthogonalEdgeStyle;rounded=0;orthogonalLoop=1;jettySize=auto;html=1;exitX=1;exitY=0.5;exitDx=0;exitDy=0;entryX=0.5;entryY=0;entryDx=0;entryDy=0;strokeColor=#FFFFFF;" edge="1" parent="1" source="q9ohaEyn7uQv9T4nXkOE-17" target="q9ohaEyn7uQv9T4nXkOE-24">
          <mxGeometry relative="1" as="geometry" />
        </mxCell>
        <mxCell id="q9ohaEyn7uQv9T4nXkOE-27" value="False" style="edgeLabel;html=1;align=center;verticalAlign=middle;resizable=0;points=[];" vertex="1" connectable="0" parent="q9ohaEyn7uQv9T4nXkOE-26">
          <mxGeometry x="-0.4401" relative="1" as="geometry">
            <mxPoint as="offset" />
          </mxGeometry>
        </mxCell>
        <mxCell id="q9ohaEyn7uQv9T4nXkOE-17" value="i == source" style="rhombus;whiteSpace=wrap;html=1;" vertex="1" parent="1">
          <mxGeometry x="250" y="560" width="150" height="80" as="geometry" />
        </mxCell>
        <mxCell id="q9ohaEyn7uQv9T4nXkOE-28" style="edgeStyle=orthogonalEdgeStyle;rounded=0;orthogonalLoop=1;jettySize=auto;html=1;strokeColor=#FFFFFF;entryX=0;entryY=0.5;entryDx=0;entryDy=0;" edge="1" parent="1" source="q9ohaEyn7uQv9T4nXkOE-22" target="q9ohaEyn7uQv9T4nXkOE-24">
          <mxGeometry relative="1" as="geometry">
            <mxPoint x="200" y="720" as="targetPoint" />
          </mxGeometry>
        </mxCell>
        <mxCell id="q9ohaEyn7uQv9T4nXkOE-22" value="vertices[i].distance = 0;" style="rounded=1;whiteSpace=wrap;html=1;" vertex="1" parent="1">
          <mxGeometry x="30" y="640" width="130" height="60" as="geometry" />
        </mxCell>
        <mxCell id="q9ohaEyn7uQv9T4nXkOE-34" style="edgeStyle=orthogonalEdgeStyle;rounded=0;orthogonalLoop=1;jettySize=auto;html=1;entryX=0.5;entryY=0;entryDx=0;entryDy=0;strokeColor=#FFFFFF;exitX=0;exitY=0.5;exitDx=0;exitDy=0;" edge="1" parent="1" source="q9ohaEyn7uQv9T4nXkOE-36" target="q9ohaEyn7uQv9T4nXkOE-5">
          <mxGeometry relative="1" as="geometry">
            <Array as="points">
              <mxPoint x="250" y="824" />
              <mxPoint x="20" y="824" />
              <mxPoint x="20" y="300" />
              <mxPoint x="585" y="300" />
            </Array>
          </mxGeometry>
        </mxCell>
        <mxCell id="q9ohaEyn7uQv9T4nXkOE-35" style="edgeStyle=orthogonalEdgeStyle;rounded=0;orthogonalLoop=1;jettySize=auto;html=1;strokeColor=#FFFFFF;entryX=0.5;entryY=0;entryDx=0;entryDy=0;" edge="1" parent="1" source="q9ohaEyn7uQv9T4nXkOE-24" target="q9ohaEyn7uQv9T4nXkOE-36">
          <mxGeometry relative="1" as="geometry">
            <mxPoint x="200" y="840" as="targetPoint" />
          </mxGeometry>
        </mxCell>
        <mxCell id="q9ohaEyn7uQv9T4nXkOE-24" value="priorityQueue.add(vertices[i]);" style="rounded=1;whiteSpace=wrap;html=1;" vertex="1" parent="1">
          <mxGeometry x="220" y="710" width="180" height="60" as="geometry" />
        </mxCell>
        <mxCell id="q9ohaEyn7uQv9T4nXkOE-40" style="edgeStyle=orthogonalEdgeStyle;rounded=0;orthogonalLoop=1;jettySize=auto;html=1;exitX=0;exitY=0.5;exitDx=0;exitDy=0;entryX=0.5;entryY=0;entryDx=0;entryDy=0;strokeColor=#FFFFFF;" edge="1" parent="1" source="q9ohaEyn7uQv9T4nXkOE-31" target="q9ohaEyn7uQv9T4nXkOE-37">
          <mxGeometry relative="1" as="geometry" />
        </mxCell>
        <mxCell id="q9ohaEyn7uQv9T4nXkOE-81" value="true" style="edgeLabel;html=1;align=center;verticalAlign=middle;resizable=0;points=[];" vertex="1" connectable="0" parent="q9ohaEyn7uQv9T4nXkOE-40">
          <mxGeometry x="-0.4624" y="-2" relative="1" as="geometry">
            <mxPoint as="offset" />
          </mxGeometry>
        </mxCell>
        <mxCell id="q9ohaEyn7uQv9T4nXkOE-80" style="edgeStyle=orthogonalEdgeStyle;rounded=0;orthogonalLoop=1;jettySize=auto;html=1;exitX=1;exitY=0.5;exitDx=0;exitDy=0;entryX=0.5;entryY=0;entryDx=0;entryDy=0;strokeColor=#FFFFFF;" edge="1" parent="1" source="q9ohaEyn7uQv9T4nXkOE-31" target="q9ohaEyn7uQv9T4nXkOE-44">
          <mxGeometry relative="1" as="geometry" />
        </mxCell>
        <mxCell id="q9ohaEyn7uQv9T4nXkOE-82" value="false" style="edgeLabel;html=1;align=center;verticalAlign=middle;resizable=0;points=[];" vertex="1" connectable="0" parent="q9ohaEyn7uQv9T4nXkOE-80">
          <mxGeometry x="-0.5739" y="3" relative="1" as="geometry">
            <mxPoint as="offset" />
          </mxGeometry>
        </mxCell>
        <mxCell id="q9ohaEyn7uQv9T4nXkOE-31" value="!priorityQueue.isEmpty()" style="rhombus;whiteSpace=wrap;html=1;" vertex="1" parent="1">
          <mxGeometry x="820" y="400" width="160" height="80" as="geometry" />
        </mxCell>
        <mxCell id="q9ohaEyn7uQv9T4nXkOE-36" value="i++" style="rounded=1;whiteSpace=wrap;html=1;" vertex="1" parent="1">
          <mxGeometry x="250" y="810" width="120" height="60" as="geometry" />
        </mxCell>
        <mxCell id="q9ohaEyn7uQv9T4nXkOE-47" style="edgeStyle=orthogonalEdgeStyle;rounded=0;orthogonalLoop=1;jettySize=auto;html=1;entryX=0.5;entryY=0;entryDx=0;entryDy=0;strokeColor=#FFFFFF;" edge="1" parent="1" source="q9ohaEyn7uQv9T4nXkOE-37" target="q9ohaEyn7uQv9T4nXkOE-43">
          <mxGeometry relative="1" as="geometry" />
        </mxCell>
        <mxCell id="q9ohaEyn7uQv9T4nXkOE-37" value="&lt;div style=&quot;text-align: justify;&quot;&gt;&lt;span style=&quot;background-color: initial;&quot;&gt;Vertex currentVertex = priorityQueue.poll();&lt;/span&gt;&lt;/div&gt;&lt;div style=&quot;text-align: justify;&quot;&gt;visited[currentVertex.id] = true&lt;/div&gt;&lt;div style=&quot;text-align: justify;&quot;&gt;List&amp;lt;Edge&amp;gt; edges = graph.getEdges(currentVertex.id);&lt;/div&gt;" style="rounded=1;whiteSpace=wrap;html=1;" vertex="1" parent="1">
          <mxGeometry x="425" y="480" width="300" height="60" as="geometry" />
        </mxCell>
        <mxCell id="q9ohaEyn7uQv9T4nXkOE-55" style="edgeStyle=orthogonalEdgeStyle;rounded=0;orthogonalLoop=1;jettySize=auto;html=1;exitX=0;exitY=0.5;exitDx=0;exitDy=0;strokeColor=#FFFFFF;entryX=0.5;entryY=0;entryDx=0;entryDy=0;" edge="1" parent="1" source="q9ohaEyn7uQv9T4nXkOE-43" target="q9ohaEyn7uQv9T4nXkOE-56">
          <mxGeometry relative="1" as="geometry">
            <mxPoint x="560" y="690" as="targetPoint" />
          </mxGeometry>
        </mxCell>
        <mxCell id="q9ohaEyn7uQv9T4nXkOE-71" value="true" style="edgeLabel;html=1;align=center;verticalAlign=middle;resizable=0;points=[];" vertex="1" connectable="0" parent="q9ohaEyn7uQv9T4nXkOE-55">
          <mxGeometry x="-0.26" y="-6" relative="1" as="geometry">
            <mxPoint as="offset" />
          </mxGeometry>
        </mxCell>
        <mxCell id="q9ohaEyn7uQv9T4nXkOE-76" style="edgeStyle=orthogonalEdgeStyle;rounded=0;orthogonalLoop=1;jettySize=auto;html=1;exitX=1;exitY=0.5;exitDx=0;exitDy=0;entryX=0.5;entryY=1;entryDx=0;entryDy=0;strokeColor=#FFFFFF;" edge="1" parent="1" source="q9ohaEyn7uQv9T4nXkOE-43" target="q9ohaEyn7uQv9T4nXkOE-31">
          <mxGeometry relative="1" as="geometry" />
        </mxCell>
        <mxCell id="q9ohaEyn7uQv9T4nXkOE-77" value="false" style="edgeLabel;html=1;align=center;verticalAlign=middle;resizable=0;points=[];" vertex="1" connectable="0" parent="q9ohaEyn7uQv9T4nXkOE-76">
          <mxGeometry x="-0.7446" y="4" relative="1" as="geometry">
            <mxPoint as="offset" />
          </mxGeometry>
        </mxCell>
        <mxCell id="q9ohaEyn7uQv9T4nXkOE-43" value="edge in edges" style="rhombus;whiteSpace=wrap;html=1;" vertex="1" parent="1">
          <mxGeometry x="585" y="580" width="140" height="80" as="geometry" />
        </mxCell>
        <mxCell id="q9ohaEyn7uQv9T4nXkOE-87" style="edgeStyle=orthogonalEdgeStyle;rounded=0;orthogonalLoop=1;jettySize=auto;html=1;exitX=0.5;exitY=1;exitDx=0;exitDy=0;entryX=0.5;entryY=0;entryDx=0;entryDy=0;strokeColor=#FFFFFF;" edge="1" parent="1" source="q9ohaEyn7uQv9T4nXkOE-44" target="q9ohaEyn7uQv9T4nXkOE-86">
          <mxGeometry relative="1" as="geometry" />
        </mxCell>
        <mxCell id="q9ohaEyn7uQv9T4nXkOE-44" value="&lt;div style=&quot;text-align: justify;&quot;&gt;&lt;span style=&quot;background-color: initial;&quot;&gt;int[][]distance = new int[vertices.length][2];&lt;/span&gt;&lt;/div&gt;&lt;div style=&quot;text-align: justify;&quot;&gt;int count = 0;&lt;/div&gt;" style="rounded=1;whiteSpace=wrap;html=1;" vertex="1" parent="1">
          <mxGeometry x="920" y="600" width="230" height="60" as="geometry" />
        </mxCell>
        <mxCell id="q9ohaEyn7uQv9T4nXkOE-13" value="&lt;div style=&quot;text-align: justify;&quot;&gt;&lt;span style=&quot;background-color: initial;&quot;&gt;vertices[i] = new Vertex(i);&lt;/span&gt;&lt;/div&gt;&lt;div style=&quot;text-align: justify;&quot;&gt;&lt;br&gt;&lt;/div&gt;" style="rounded=1;whiteSpace=wrap;html=1;" vertex="1" parent="1">
          <mxGeometry x="280" y="370" width="140" height="60" as="geometry" />
        </mxCell>
        <mxCell id="q9ohaEyn7uQv9T4nXkOE-60" style="edgeStyle=orthogonalEdgeStyle;rounded=0;orthogonalLoop=1;jettySize=auto;html=1;exitX=0;exitY=0.5;exitDx=0;exitDy=0;entryX=0.5;entryY=0;entryDx=0;entryDy=0;strokeColor=#FFFFFF;" edge="1" parent="1" source="q9ohaEyn7uQv9T4nXkOE-56" target="q9ohaEyn7uQv9T4nXkOE-58">
          <mxGeometry relative="1" as="geometry" />
        </mxCell>
        <mxCell id="q9ohaEyn7uQv9T4nXkOE-61" value="true" style="edgeLabel;html=1;align=center;verticalAlign=middle;resizable=0;points=[];" vertex="1" connectable="0" parent="q9ohaEyn7uQv9T4nXkOE-60">
          <mxGeometry x="-0.6929" y="-3" relative="1" as="geometry">
            <mxPoint as="offset" />
          </mxGeometry>
        </mxCell>
        <mxCell id="q9ohaEyn7uQv9T4nXkOE-72" style="edgeStyle=orthogonalEdgeStyle;rounded=0;orthogonalLoop=1;jettySize=auto;html=1;entryX=0.5;entryY=1;entryDx=0;entryDy=0;strokeColor=#FFFFFF;" edge="1" parent="1" source="q9ohaEyn7uQv9T4nXkOE-56" target="q9ohaEyn7uQv9T4nXkOE-43">
          <mxGeometry relative="1" as="geometry">
            <Array as="points">
              <mxPoint x="655" y="740" />
            </Array>
          </mxGeometry>
        </mxCell>
        <mxCell id="q9ohaEyn7uQv9T4nXkOE-73" value="false" style="edgeLabel;html=1;align=center;verticalAlign=middle;resizable=0;points=[];" vertex="1" connectable="0" parent="q9ohaEyn7uQv9T4nXkOE-72">
          <mxGeometry x="-0.1075" y="2" relative="1" as="geometry">
            <mxPoint x="-23" y="16" as="offset" />
          </mxGeometry>
        </mxCell>
        <mxCell id="q9ohaEyn7uQv9T4nXkOE-56" value="!visited[edge.destination]" style="rhombus;whiteSpace=wrap;html=1;" vertex="1" parent="1">
          <mxGeometry x="460" y="700" width="160" height="80" as="geometry" />
        </mxCell>
        <mxCell id="q9ohaEyn7uQv9T4nXkOE-64" style="edgeStyle=orthogonalEdgeStyle;rounded=0;orthogonalLoop=1;jettySize=auto;html=1;exitX=0.5;exitY=1;exitDx=0;exitDy=0;entryX=0.5;entryY=0;entryDx=0;entryDy=0;strokeColor=#FFFFFF;" edge="1" parent="1" source="q9ohaEyn7uQv9T4nXkOE-58" target="q9ohaEyn7uQv9T4nXkOE-62">
          <mxGeometry relative="1" as="geometry" />
        </mxCell>
        <mxCell id="q9ohaEyn7uQv9T4nXkOE-58" value="int newDistance = currentVertex.distance + edge.weight;" style="rounded=1;whiteSpace=wrap;html=1;" vertex="1" parent="1">
          <mxGeometry x="380" y="850" width="120" height="60" as="geometry" />
        </mxCell>
        <mxCell id="q9ohaEyn7uQv9T4nXkOE-69" style="edgeStyle=orthogonalEdgeStyle;rounded=0;orthogonalLoop=1;jettySize=auto;html=1;exitX=0;exitY=0.5;exitDx=0;exitDy=0;entryX=0.5;entryY=0;entryDx=0;entryDy=0;strokeColor=#FFFFFF;" edge="1" parent="1" source="q9ohaEyn7uQv9T4nXkOE-62" target="q9ohaEyn7uQv9T4nXkOE-65">
          <mxGeometry relative="1" as="geometry" />
        </mxCell>
        <mxCell id="q9ohaEyn7uQv9T4nXkOE-70" value="true" style="edgeLabel;html=1;align=center;verticalAlign=middle;resizable=0;points=[];" vertex="1" connectable="0" parent="q9ohaEyn7uQv9T4nXkOE-69">
          <mxGeometry x="-0.3903" y="2" relative="1" as="geometry">
            <mxPoint as="offset" />
          </mxGeometry>
        </mxCell>
        <mxCell id="q9ohaEyn7uQv9T4nXkOE-74" style="edgeStyle=orthogonalEdgeStyle;rounded=0;orthogonalLoop=1;jettySize=auto;html=1;strokeColor=#FFFFFF;" edge="1" parent="1" source="q9ohaEyn7uQv9T4nXkOE-62" target="q9ohaEyn7uQv9T4nXkOE-43">
          <mxGeometry relative="1" as="geometry" />
        </mxCell>
        <mxCell id="q9ohaEyn7uQv9T4nXkOE-75" value="false" style="edgeLabel;html=1;align=center;verticalAlign=middle;resizable=0;points=[];" vertex="1" connectable="0" parent="q9ohaEyn7uQv9T4nXkOE-74">
          <mxGeometry x="-0.335" y="-2" relative="1" as="geometry">
            <mxPoint x="-47" y="56" as="offset" />
          </mxGeometry>
        </mxCell>
        <mxCell id="q9ohaEyn7uQv9T4nXkOE-62" value="newDistance &amp;lt; vertices[edge.destination].distance&lt;div&gt;&lt;br&gt;&lt;/div&gt;" style="rhombus;whiteSpace=wrap;html=1;" vertex="1" parent="1">
          <mxGeometry x="350" y="940" width="230" height="80" as="geometry" />
        </mxCell>
        <mxCell id="q9ohaEyn7uQv9T4nXkOE-99" style="edgeStyle=orthogonalEdgeStyle;rounded=0;orthogonalLoop=1;jettySize=auto;html=1;entryX=0.5;entryY=1;entryDx=0;entryDy=0;strokeColor=#FFFFFF;" edge="1" parent="1" source="q9ohaEyn7uQv9T4nXkOE-65" target="q9ohaEyn7uQv9T4nXkOE-43">
          <mxGeometry relative="1" as="geometry" />
        </mxCell>
        <mxCell id="q9ohaEyn7uQv9T4nXkOE-65" value="&lt;div style=&quot;text-align: justify;&quot;&gt;&lt;span style=&quot;background-color: initial;&quot;&gt;priorityQueue.remove(vertices[edge.destination]);&lt;/span&gt;&lt;/div&gt;&lt;div style=&quot;text-align: justify;&quot;&gt;vertices[edge.destination].distance = newDistance;&lt;/div&gt;&lt;div style=&quot;text-align: justify;&quot;&gt;priorityQueue.add(vertices[edge.destination]);&lt;/div&gt;" style="rounded=1;whiteSpace=wrap;html=1;" vertex="1" parent="1">
          <mxGeometry x="100" y="1100" width="310" height="60" as="geometry" />
        </mxCell>
        <mxCell id="q9ohaEyn7uQv9T4nXkOE-91" style="edgeStyle=orthogonalEdgeStyle;rounded=0;orthogonalLoop=1;jettySize=auto;html=1;exitX=0;exitY=0.5;exitDx=0;exitDy=0;entryX=0.5;entryY=0;entryDx=0;entryDy=0;strokeColor=#FFFFFF;" edge="1" parent="1" source="q9ohaEyn7uQv9T4nXkOE-86" target="q9ohaEyn7uQv9T4nXkOE-88">
          <mxGeometry relative="1" as="geometry" />
        </mxCell>
        <mxCell id="q9ohaEyn7uQv9T4nXkOE-96" value="true" style="edgeLabel;html=1;align=center;verticalAlign=middle;resizable=0;points=[];" vertex="1" connectable="0" parent="q9ohaEyn7uQv9T4nXkOE-91">
          <mxGeometry x="0.0453" y="2" relative="1" as="geometry">
            <mxPoint as="offset" />
          </mxGeometry>
        </mxCell>
        <mxCell id="q9ohaEyn7uQv9T4nXkOE-94" style="edgeStyle=orthogonalEdgeStyle;rounded=0;orthogonalLoop=1;jettySize=auto;html=1;exitX=1;exitY=0.5;exitDx=0;exitDy=0;entryX=0.5;entryY=0;entryDx=0;entryDy=0;strokeColor=#FFFFFF;" edge="1" parent="1" source="q9ohaEyn7uQv9T4nXkOE-86" target="q9ohaEyn7uQv9T4nXkOE-93">
          <mxGeometry relative="1" as="geometry" />
        </mxCell>
        <mxCell id="q9ohaEyn7uQv9T4nXkOE-97" value="false" style="edgeLabel;html=1;align=center;verticalAlign=middle;resizable=0;points=[];" vertex="1" connectable="0" parent="q9ohaEyn7uQv9T4nXkOE-94">
          <mxGeometry x="-0.8724" y="3" relative="1" as="geometry">
            <mxPoint as="offset" />
          </mxGeometry>
        </mxCell>
        <mxCell id="q9ohaEyn7uQv9T4nXkOE-86" value="vertex in vertices" style="rhombus;whiteSpace=wrap;html=1;" vertex="1" parent="1">
          <mxGeometry x="950" y="710" width="140" height="80" as="geometry" />
        </mxCell>
        <mxCell id="q9ohaEyn7uQv9T4nXkOE-98" style="edgeStyle=orthogonalEdgeStyle;rounded=0;orthogonalLoop=1;jettySize=auto;html=1;exitX=0.5;exitY=1;exitDx=0;exitDy=0;entryX=0;entryY=0;entryDx=0;entryDy=0;strokeColor=#FFFFFF;" edge="1" parent="1" source="q9ohaEyn7uQv9T4nXkOE-88" target="q9ohaEyn7uQv9T4nXkOE-86">
          <mxGeometry relative="1" as="geometry">
            <Array as="points">
              <mxPoint x="861" y="870" />
              <mxPoint x="740" y="870" />
              <mxPoint x="740" y="700" />
              <mxPoint x="985" y="700" />
            </Array>
          </mxGeometry>
        </mxCell>
        <mxCell id="q9ohaEyn7uQv9T4nXkOE-88" value="&lt;div style=&quot;text-align: justify;&quot;&gt;&lt;span style=&quot;background-color: initial;&quot;&gt;distance[count][0] = vertex.id;&lt;/span&gt;&lt;/div&gt;&lt;div style=&quot;text-align: justify;&quot;&gt;distance[count][1] = vertex.distance;&lt;/div&gt;&lt;div style=&quot;text-align: justify;&quot;&gt;count++;&lt;/div&gt;" style="rounded=1;whiteSpace=wrap;html=1;" vertex="1" parent="1">
          <mxGeometry x="762" y="790" width="198" height="60" as="geometry" />
        </mxCell>
        <mxCell id="q9ohaEyn7uQv9T4nXkOE-93" value="return distance;&lt;br&gt;Exit" style="ellipse;whiteSpace=wrap;html=1;" vertex="1" parent="1">
          <mxGeometry x="960" y="900" width="120" height="80" as="geometry" />
        </mxCell>
        <mxCell id="q9ohaEyn7uQv9T4nXkOE-100" value="&lt;span style=&quot;background-color: rgb(255, 255, 255);&quot;&gt;1&lt;/span&gt;" style="text;strokeColor=none;align=center;fillColor=none;html=1;verticalAlign=middle;whiteSpace=wrap;rounded=0;" vertex="1" parent="1">
          <mxGeometry x="610" y="20" width="60" height="30" as="geometry" />
        </mxCell>
        <mxCell id="q9ohaEyn7uQv9T4nXkOE-101" value="&lt;span style=&quot;background-color: rgb(255, 255, 255);&quot;&gt;2&lt;/span&gt;" style="text;strokeColor=none;align=center;fillColor=none;html=1;verticalAlign=middle;whiteSpace=wrap;rounded=0;" vertex="1" parent="1">
          <mxGeometry x="740" y="130" width="60" height="30" as="geometry" />
        </mxCell>
        <mxCell id="q9ohaEyn7uQv9T4nXkOE-102" value="&lt;span style=&quot;background-color: rgb(255, 255, 255);&quot;&gt;&amp;nbsp; 3&amp;nbsp;&amp;nbsp;&lt;/span&gt;" style="text;strokeColor=none;align=center;fillColor=none;html=1;verticalAlign=middle;whiteSpace=wrap;rounded=0;" vertex="1" parent="1">
          <mxGeometry x="625" y="250" width="60" height="30" as="geometry" />
        </mxCell>
        <mxCell id="q9ohaEyn7uQv9T4nXkOE-103" value="&lt;span style=&quot;background-color: rgb(255, 255, 255);&quot;&gt;&amp;nbsp; 4&amp;nbsp;&amp;nbsp;&lt;/span&gt;" style="text;strokeColor=none;align=center;fillColor=none;html=1;verticalAlign=middle;whiteSpace=wrap;rounded=0;" vertex="1" parent="1">
          <mxGeometry x="597" y="300" width="60" height="30" as="geometry" />
        </mxCell>
        <mxCell id="q9ohaEyn7uQv9T4nXkOE-104" value="&lt;span style=&quot;background-color: rgb(255, 255, 255);&quot;&gt;&amp;nbsp; 5&amp;nbsp;&amp;nbsp;&lt;/span&gt;" style="text;strokeColor=none;align=center;fillColor=none;html=1;verticalAlign=middle;whiteSpace=wrap;rounded=0;" vertex="1" parent="1">
          <mxGeometry x="270" y="340" width="60" height="30" as="geometry" />
        </mxCell>
        <mxCell id="q9ohaEyn7uQv9T4nXkOE-105" value="&lt;span style=&quot;background-color: rgb(255, 255, 255);&quot;&gt;&amp;nbsp; 6&amp;nbsp;&amp;nbsp;&lt;/span&gt;" style="text;strokeColor=none;align=center;fillColor=none;html=1;verticalAlign=middle;whiteSpace=wrap;rounded=0;" vertex="1" parent="1">
          <mxGeometry x="910" y="390" width="60" height="30" as="geometry" />
        </mxCell>
        <mxCell id="q9ohaEyn7uQv9T4nXkOE-106" value="&lt;span style=&quot;background-color: rgb(255, 255, 255);&quot;&gt;&amp;nbsp; 7&amp;nbsp;&amp;nbsp;&lt;/span&gt;" style="text;strokeColor=none;align=center;fillColor=none;html=1;verticalAlign=middle;whiteSpace=wrap;rounded=0;" vertex="1" parent="1">
          <mxGeometry x="340" y="550" width="60" height="30" as="geometry" />
        </mxCell>
        <mxCell id="q9ohaEyn7uQv9T4nXkOE-107" value="&lt;span style=&quot;background-color: rgb(255, 255, 255);&quot;&gt;&amp;nbsp; 8&amp;nbsp;&amp;nbsp;&lt;/span&gt;" style="text;strokeColor=none;align=center;fillColor=none;html=1;verticalAlign=middle;whiteSpace=wrap;rounded=0;" vertex="1" parent="1">
          <mxGeometry x="141" y="620" width="60" height="30" as="geometry" />
        </mxCell>
        <mxCell id="q9ohaEyn7uQv9T4nXkOE-108" value="&lt;span style=&quot;background-color: rgb(255, 255, 255);&quot;&gt;&amp;nbsp; 9&amp;nbsp;&amp;nbsp;&lt;/span&gt;" style="text;strokeColor=none;align=center;fillColor=none;html=1;verticalAlign=middle;whiteSpace=wrap;rounded=0;" vertex="1" parent="1">
          <mxGeometry x="350" y="680" width="60" height="30" as="geometry" />
        </mxCell>
        <mxCell id="q9ohaEyn7uQv9T4nXkOE-109" value="&lt;span style=&quot;background-color: rgb(255, 255, 255);&quot;&gt;&amp;nbsp; 10&amp;nbsp;&amp;nbsp;&lt;/span&gt;" style="text;strokeColor=none;align=center;fillColor=none;html=1;verticalAlign=middle;whiteSpace=wrap;rounded=0;" vertex="1" parent="1">
          <mxGeometry x="320" y="780" width="60" height="30" as="geometry" />
        </mxCell>
        <mxCell id="q9ohaEyn7uQv9T4nXkOE-110" value="&lt;span style=&quot;background-color: rgb(255, 255, 255);&quot;&gt;&amp;nbsp;11&amp;nbsp;&lt;/span&gt;" style="text;strokeColor=none;align=center;fillColor=none;html=1;verticalAlign=middle;whiteSpace=wrap;rounded=0;" vertex="1" parent="1">
          <mxGeometry x="500" y="450" width="60" height="30" as="geometry" />
        </mxCell>
        <mxCell id="q9ohaEyn7uQv9T4nXkOE-111" value="&lt;span style=&quot;background-color: rgb(255, 255, 255);&quot;&gt;&amp;nbsp;12&amp;nbsp;&lt;/span&gt;" style="text;strokeColor=none;align=center;fillColor=none;html=1;verticalAlign=middle;whiteSpace=wrap;rounded=0;" vertex="1" parent="1">
          <mxGeometry x="685" y="570" width="60" height="30" as="geometry" />
        </mxCell>
        <mxCell id="q9ohaEyn7uQv9T4nXkOE-112" value="&lt;span style=&quot;background-color: rgb(255, 255, 255);&quot;&gt;&amp;nbsp;13&amp;nbsp;&lt;/span&gt;" style="text;strokeColor=none;align=center;fillColor=none;html=1;verticalAlign=middle;whiteSpace=wrap;rounded=0;" vertex="1" parent="1">
          <mxGeometry x="561" y="700" width="60" height="30" as="geometry" />
        </mxCell>
        <mxCell id="q9ohaEyn7uQv9T4nXkOE-113" value="&lt;span style=&quot;background-color: rgb(255, 255, 255);&quot;&gt;&amp;nbsp;14&amp;nbsp;&lt;/span&gt;" style="text;strokeColor=none;align=center;fillColor=none;html=1;verticalAlign=middle;whiteSpace=wrap;rounded=0;" vertex="1" parent="1">
          <mxGeometry x="480" y="827" width="60" height="30" as="geometry" />
        </mxCell>
        <mxCell id="q9ohaEyn7uQv9T4nXkOE-114" value="&lt;span style=&quot;background-color: rgb(255, 255, 255);&quot;&gt;&amp;nbsp;15&amp;nbsp;&lt;/span&gt;" style="text;strokeColor=none;align=center;fillColor=none;html=1;verticalAlign=middle;whiteSpace=wrap;rounded=0;" vertex="1" parent="1">
          <mxGeometry x="500" y="940" width="60" height="30" as="geometry" />
        </mxCell>
        <mxCell id="q9ohaEyn7uQv9T4nXkOE-115" value="&lt;span style=&quot;background-color: rgb(255, 255, 255);&quot;&gt;&amp;nbsp;16&amp;nbsp;&lt;/span&gt;" style="text;strokeColor=none;align=center;fillColor=none;html=1;verticalAlign=middle;whiteSpace=wrap;rounded=0;" vertex="1" parent="1">
          <mxGeometry x="380" y="1080" width="60" height="30" as="geometry" />
        </mxCell>
        <mxCell id="q9ohaEyn7uQv9T4nXkOE-116" value="&lt;span style=&quot;background-color: rgb(255, 255, 255);&quot;&gt;&amp;nbsp;1&lt;/span&gt;&lt;span style=&quot;color: rgba(0, 0, 0, 0); font-family: monospace; font-size: 0px; text-align: start; text-wrap: nowrap;&quot;&gt;%3CmxGraphModel%3E%3Croot%3E%3CmxCell%20id%3D%220%22%2F%3E%3CmxCell%20id%3D%221%22%20parent%3D%220%22%2F%3E%3CmxCell%20id%3D%222%22%20value%3D%22%26lt%3Bspan%20style%3D%26quot%3Bbackground-color%3A%20rgb(255%2C%20255%2C%20255)%3B%26quot%3B%26gt%3B%26amp%3Bnbsp%3B16%26amp%3Bnbsp%3B%26lt%3B%2Fspan%26gt%3B%22%20style%3D%22text%3BstrokeColor%3Dnone%3Balign%3Dcenter%3BfillColor%3Dnone%3Bhtml%3D1%3BverticalAlign%3Dmiddle%3BwhiteSpace%3Dwrap%3Brounded%3D0%3B%22%20vertex%3D%221%22%20parent%3D%221%22%3E%3CmxGeometry%20x%3D%22380%22%20y%3D%221080%22%20width%3D%2260%22%20height%3D%2230%22%20as%3D%22geometry%22%2F%3E%3C%2FmxCell%3E%3C%2Froot%3E%3C%2FmxGraphModel%3E&lt;/span&gt;&lt;span style=&quot;background-color: rgb(255, 255, 255);&quot;&gt;7&amp;nbsp;&lt;/span&gt;" style="text;strokeColor=none;align=center;fillColor=none;html=1;verticalAlign=middle;whiteSpace=wrap;rounded=0;" vertex="1" parent="1">
          <mxGeometry x="1090" y="570" width="60" height="30" as="geometry" />
        </mxCell>
        <mxCell id="q9ohaEyn7uQv9T4nXkOE-117" value="&lt;span style=&quot;background-color: rgb(255, 255, 255);&quot;&gt;&amp;nbsp;18&amp;nbsp;&lt;/span&gt;&lt;span style=&quot;color: rgba(0, 0, 0, 0); font-family: monospace; font-size: 0px; text-align: start; text-wrap: nowrap;&quot;&gt;%3CmxGraphModel%3E%3Croot%3E%3CmxCell%20id%3D%220%22%2F%3E%3CmxCell%20id%3D%221%22%20parent%3D%220%22%2F%3E%3CmxCell%20id%3D%222%22%20value%3D%22%26lt%3Bspan%20style%3D%26quot%3Bbackground-color%3A%20rgb(255%2C%20255%2C%20255)%3B%26quot%3B%26gt%3B%26amp%3Bnbsp%3B16%26amp%3Bnbsp%3B%26lt%3B%2Fspan%26gt%3B%22%20style%3D%22text%3BstrokeColor%3Dnone%3Balign%3Dcenter%3BfillColor%3Dnone%3Bhtml%3D1%3BverticalAlign%3Dmiddle%3BwhiteSpace%3Dwrap%3Brounded%3D0%3B%22%20vertex%3D%221%22%20parent%3D%221%22%3E%3CmxGeometry%20x%3D%22380%22%20y%3D%221080%22%20width%3D%2260%22%20height%3D%2230%22%20as%3D%22geometry%22%2F%3E%3C%2FmxCell%3E%3C%2Froot%3E%3C%2FmxGraphModel%3E88&lt;/span&gt;&lt;span style=&quot;background-color: rgb(255, 255, 255);&quot;&gt;&amp;nbsp;&lt;/span&gt;" style="text;strokeColor=none;align=center;fillColor=none;html=1;verticalAlign=middle;whiteSpace=wrap;rounded=0;" vertex="1" parent="1">
          <mxGeometry x="1060" y="710" width="60" height="30" as="geometry" />
        </mxCell>
        <mxCell id="q9ohaEyn7uQv9T4nXkOE-118" value="&lt;span style=&quot;background-color: rgb(255, 255, 255);&quot;&gt;&amp;nbsp;19&amp;nbsp;&lt;/span&gt;&lt;span style=&quot;color: rgba(0, 0, 0, 0); font-family: monospace; font-size: 0px; text-align: start; text-wrap: nowrap;&quot;&gt;%3CmxGraphModel%3E%3Croot%3E%3CmxCell%20id%3D%220%22%2F%3E%3CmxCell%20id%3D%221%22%20parent%3D%220%22%2F%3E%3CmxCell%20id%3D%222%22%20value%3D%22%26lt%3Bspan%20style%3D%26quot%3Bbackground-color%3A%20rgb(255%2C%20255%2C%20255)%3B%26quot%3B%26gt%3B%26amp%3Bnbsp%3B16%26amp%3Bnbsp%3B%26lt%3B%2Fspan%26gt%3B%22%20style%3D%22text%3BstrokeColor%3Dnone%3Balign%3Dcenter%3BfillColor%3Dnone%3Bhtml%3D1%3BverticalAlign%3Dmiddle%3BwhiteSpace%3Dwrap%3Brounded%3D0%3B%22%20vertex%3D%221%22%20parent%3D%221%22%3E%3CmxGeometry%20x%3D%22380%22%20y%3D%221080%22%20width%3D%2260%22%20height%3D%2230%22%20as%3D%22geometry%22%2F%3E%3C%2FmxCell%3E%3C%2Froot%3E%3C%2FmxGraphModel%3E8&lt;/span&gt;&lt;span style=&quot;background-color: rgb(255, 255, 255);&quot;&gt;&amp;nbsp;&lt;/span&gt;" style="text;strokeColor=none;align=center;fillColor=none;html=1;verticalAlign=middle;whiteSpace=wrap;rounded=0;" vertex="1" parent="1">
          <mxGeometry x="901" y="760" width="60" height="30" as="geometry" />
        </mxCell>
        <mxCell id="q9ohaEyn7uQv9T4nXkOE-119" value="&lt;span style=&quot;background-color: rgb(255, 255, 255);&quot;&gt;&amp;nbsp;20&amp;nbsp;&lt;/span&gt;&lt;span style=&quot;color: rgba(0, 0, 0, 0); font-family: monospace; font-size: 0px; text-align: start; text-wrap: nowrap;&quot;&gt;%3CmxGraphModel%3E%3Croot%3E%3CmxCell%20id%3D%220%22%2F%3E%3CmxCell%20id%3D%221%22%20parent%3D%220%22%2F%3E%3CmxCell%20id%3D%222%22%20value%3D%22%26lt%3Bspan%20style%3D%26quot%3Bbackground-color%3A%20rgb(255%2C%20255%2C%20255)%3B%26quot%3B%26gt%3B%26amp%3Bnbsp%3B16%26amp%3Bnbsp%3B%26lt%3B%2Fspan%26gt%3B%22%20style%3D%22text%3BstrokeColor%3Dnone%3Balign%3Dcenter%3BfillColor%3Dnone%3Bhtml%3D1%3BverticalAlign%3Dmiddle%3BwhiteSpace%3Dwrap%3Brounded%3D0%3B%22%20vertex%3D%221%22%20parent%3D%221%22%3E%3CmxGeometry%20x%3D%22380%22%20y%3D%221080%22%20width%3D%2260%22%20height%3D%2230%22%20as%3D%22geometry%22%2F%3E%3C%2FmxCell%3E%3C%2Froot%3E%3C%2FmxGraphModel%3E88&lt;/span&gt;&lt;span style=&quot;background-color: rgb(255, 255, 255);&quot;&gt;&amp;nbsp;&lt;/span&gt;" style="text;strokeColor=none;align=center;fillColor=none;html=1;verticalAlign=middle;whiteSpace=wrap;rounded=0;" vertex="1" parent="1">
          <mxGeometry x="1040" y="880" width="60" height="30" as="geometry" />
        </mxCell>
      </root>
    </mxGraphModel>
  </diagram>
</mxfile>
